<svg xmlns="http://www.w3.org/2000/svg" viewBox="0 0 551.16 300.24"><defs><style>.cls-1{fill:#231f20;}.cls-2{opacity:0.5;}</style></defs><title>Asset 3</title><g id="Layer_2" data-name="Layer 2"><g id="Layer_1-2" data-name="Layer 1"><path class="cls-1" d="M128.2,240.7c-19.63,53.28-43.51,59.53-76,59.53-13,0-25.73-.69-33.61-2V255.66a142.61,142.61,0,0,0,23.21,1.81c14,0,19.88-3,23.9-13.15l1.62-4.22L0,80H61.46l34.6,98.16h1.27L127,80h60.45Z"/><path class="cls-1" d="M360,192.12c-5.55,22.34-30,52.42-87.08,52.42-56.24,0-89.59-31.62-89.59-83.88,0-52.64,32.77-84.49,89.5-84.49s93,31.93,89,94.82H241.16c.27,24.16,12.82,38.74,31.73,38.74,19.49,0,26.93-11,29.22-20.67Zm-118.41-52H304c-.71-17.64-12.24-30.18-31.18-30.18S242.27,122.45,241.57,140.09Z"/><path class="cls-1" d="M463.58,203A79.77,79.77,0,0,0,479,201.56V240.7c-7.3,2.17-21.25,3.85-34.9,3.85-38.52,0-54.5-9.08-54.5-44.17V113.69H363.83V80h25.78V35.81H446V80h33.53v33.66H446v73.83c0,12.9,5.31,15.45,17.56,15.45Z"/><path class="cls-1" d="M551.16,21.58V60.5h-56.4V21.58Zm0,58.44V240.7h-56.4V80Z"/><g class="cls-2"><rect class="cls-1" x="121.1" y="9.51" width="45.91" height="45.91" transform="translate(19.24 111.37) rotate(-45)"/></g><g class="cls-2"><rect class="cls-1" x="25.47" y="9.51" width="45.91" height="45.91" transform="translate(-8.77 43.75) rotate(-45)"/></g></g></g></svg>