<svg xmlns="http://www.w3.org/2000/svg" viewBox="0 0 729.16 397.2"><defs><style>.cls-1{fill:#fff;}.cls-2{opacity:0.5;}</style></defs><title>Asset 5</title><g id="Layer_2" data-name="Layer 2"><g id="Layer_1-2" data-name="Layer 1"><path class="cls-1" d="M169.6,318.44C143.63,388.92,112,397.2,69,397.2c-17.15,0-34-.91-44.47-2.58V338.23a188.67,188.67,0,0,0,30.7,2.4c18.55,0,26.3-4,31.62-17.4L89,317.66,0,105.87H81.31l45.78,129.86h1.68L168,105.87h80Z"/><path class="cls-1" d="M476.23,254.17c-7.35,29.56-39.69,69.35-115.21,69.35-74.41,0-118.53-41.84-118.53-111,0-69.65,43.35-111.78,118.41-111.78S484,143,478.71,226.21H319c.35,32,17,51.25,42,51.25,25.78,0,35.63-14.55,38.66-27.34ZM319.59,185.33h82.57C401.22,162,386,145.4,360.91,145.4S320.52,162,319.59,185.33Z"/><path class="cls-1" d="M613.3,268.52a105.53,105.53,0,0,0,20.41-1.87v51.79c-9.66,2.87-28.11,5.09-46.17,5.09-51,0-72.1-12-72.1-58.43V150.41H481.33V105.87h34.11V47.38h74.61v58.5h44.35v44.53H590.06v97.67c0,17.06,7,20.44,23.24,20.44Z"/><path class="cls-1" d="M729.16,28.55V80H654.54V28.55Zm0,77.32V318.43H654.54V105.87Z"/><g class="cls-2"><rect class="cls-1" x="160.22" y="12.58" width="60.73" height="60.73" transform="translate(25.45 147.34) rotate(-45)"/></g><g class="cls-2"><rect class="cls-1" x="33.7" y="12.58" width="60.73" height="60.73" transform="translate(-11.6 57.88) rotate(-45)"/></g></g></g></svg>